<svg aria-hidden="true" style="position: absolute; width: 0; height: 0; overflow: hidden;" version="1.1" xmlns="http://www.w3.org/2000/svg" xmlns:xlink="http://www.w3.org/1999/xlink">
<defs>
<symbol id="icon-login-arrow" viewBox="0 0 32 32">
<path d="M0 16c0-0.505 0.211-0.989 0.586-1.347s0.884-0.558 1.414-0.558h23.169l-8.587-8.174c-0.376-0.358-0.586-0.843-0.586-1.348s0.211-0.991 0.586-1.348c0.375-0.358 0.885-0.558 1.416-0.558s1.040 0.201 1.416 0.558l11.999 11.427c0.186 0.177 0.334 0.387 0.435 0.618s0.153 0.479 0.153 0.73c0 0.25-0.052 0.499-0.153 0.73s-0.249 0.442-0.435 0.618l-11.999 11.427c-0.376 0.358-0.885 0.558-1.416 0.558s-1.040-0.201-1.416-0.558c-0.376-0.358-0.586-0.843-0.586-1.348s0.211-0.991 0.586-1.348l8.587-8.174h-23.169c-0.53 0-1.039-0.201-1.414-0.558s-0.586-0.842-0.586-1.347z"></path>
</symbol>
<symbol id="icon-computer" viewBox="0 0 32 32">
<path d="M1.715 20c0 0.316 0.256 0.572 0.571 0.572h27.429c0.316 0 0.572-0.256 0.572-0.572v-17.714h-28.571v17.714z"></path>
<path d="M31.429 0h-30.857c-0.316 0-0.571 0.256-0.571 0.571s0.256 0.571 0.571 0.571h30.857c0.316 0 0.571-0.256 0.571-0.571s-0.256-0.571-0.571-0.571z"></path>
<path d="M20.572 29.714h-4v-6.857h0.571c0.316 0 0.571-0.256 0.571-0.571v-0.571h-3.428v0.571c0 0.316 0.256 0.571 0.571 0.571h0.571v6.857h-4c-0.947 0-1.714 0.767-1.714 1.714v0.572h12.571v-0.572c0-0.947-0.768-1.714-1.714-1.714z"></path>
</symbol>
<symbol id="icon-training" viewBox="0 0 32 32">
<path d="M11.275 21.606h9.449v4.725h-9.449v-4.725z"></path>
<path d="M16 3.652c-5.731 0-10.394 4.663-10.394 10.394v14.174c0 2.084 1.696 3.78 3.78 3.78h13.229c2.084 0 3.78-1.696 3.78-3.78v-14.174c0-5.731-4.663-10.394-10.394-10.394zM10.33 12.156h11.339v1.89h-1.89v1.89h-1.89v-1.89h-7.559v-1.89zM22.614 28.22h-13.229v-8.504h13.229v8.504z"></path>
<path d="M25.704 1.839l-5.363-1.839-0.785 2.288c1.895 0.574 3.598 1.595 4.986 2.94l1.162-3.389z"></path>
<path d="M12.443 2.288l-0.784-2.288-5.363 1.839 1.162 3.389c1.388-1.345 3.090-2.366 4.986-2.94z"></path>
</symbol>
<symbol id="icon-book" viewBox="0 0 32 32">
<path d="M6.614 25.546h21.797c0.067 0 0.131-0.009 0.194-0.024 0.005 0 0.009 0.001 0.014 0.001 0.465 0 0.843-0.378 0.843-0.843v-23.835c0-0.466-0.378-0.843-0.843-0.843h-22.004c-2.245 0-4.071 1.826-4.071 4.070 0 0.030 0.006 0.059 0.009 0.088-0.003 2.073-0.029 21.121-0.003 23.625-0.002 0.049-0.008 0.097-0.008 0.146 0 2.158 1.69 3.924 3.815 4.058 0.043 0.007 0.084 0.013 0.129 0.013h22.133c0.465 0 0.843-0.378 0.843-0.843v-3.174c0-0.465-0.378-0.843-0.843-0.843s-0.843 0.378-0.843 0.843v2.331h-21.162c-1.282 0-2.328-1.018-2.379-2.286 0.001-0.023 0.005-0.044 0.005-0.067-0.001-0.037-0.002-0.095-0.003-0.171 0.074-1.249 1.11-2.243 2.377-2.243zM7.189 4.070c0-0.466 0.378-0.843 0.843-0.843s0.843 0.378 0.843 0.843v17.13c0 0.465-0.378 0.843-0.843 0.843s-0.843-0.378-0.843-0.843v-17.13z"></path>
</symbol>
<symbol id="icon-learn-more" viewBox="0 0 32 32">
<path d="M7.87 1.281c0.108-0.108 0.235-0.193 0.376-0.252s0.292-0.088 0.444-0.088c0.152 0 0.303 0.030 0.444 0.088s0.269 0.144 0.376 0.252l13.899 13.899c0.108 0.108 0.193 0.235 0.252 0.376s0.088 0.292 0.088 0.444c0 0.152-0.030 0.303-0.088 0.444s-0.144 0.269-0.252 0.376l-13.899 13.899c-0.217 0.217-0.512 0.34-0.82 0.34s-0.603-0.122-0.82-0.34c-0.218-0.218-0.34-0.513-0.34-0.82s0.122-0.603 0.34-0.82l13.081-13.079-13.081-13.079c-0.108-0.108-0.193-0.235-0.252-0.376s-0.088-0.292-0.088-0.444c0-0.152 0.030-0.303 0.088-0.444s0.144-0.269 0.252-0.376z"></path>
</symbol>
<symbol id="icon-play-btn" viewBox="0 0 32 32">
<path d="M27.386 18.27l-20.148 12.032c-1.71 1.020-3.904-0.215-3.904-2.271v-24.063c0-2.053 2.191-3.291 3.904-2.268l20.148 12.031c0.389 0.229 0.712 0.559 0.937 0.957s0.343 0.851 0.343 1.312c0 0.461-0.118 0.914-0.343 1.312s-0.548 0.729-0.937 0.957z"></path>
</symbol>
<symbol id="icon-educ-heart" viewBox="0 0 32 32">
<path stroke-linejoin="miter" stroke-linecap="butt" stroke-miterlimit="4" stroke-width="0.9524" d="M16 9.834l-2.080-2.129c-0.53-0.54-1.162-0.969-1.86-1.261s-1.447-0.444-2.203-0.444c-0.757 0-1.506 0.151-2.203 0.444s-1.33 0.721-1.86 1.261c-1.088 1.105-1.698 2.593-1.698 4.143s0.61 3.039 1.698 4.144l0 0 10.205 10.334 10.206-10.334c1.088-1.105 1.698-2.593 1.698-4.144s-0.61-3.039-1.698-4.143c-0.53-0.54-1.162-0.969-1.86-1.262s-1.447-0.443-2.203-0.443c-0 0-0.001 0-0.001 0l0 0.476M16 9.834l2.069-2.11 0.34 0.333M16 9.834l2.066-2.107M16 9.834l2.066-2.107M22.142 6.476c-0.697-0.001-1.386 0.138-2.028 0.41s-1.222 0.67-1.706 1.171M22.142 6.476c0.693-0.001 1.38 0.137 2.019 0.405s1.219 0.661 1.704 1.156l-3.724-1.562zM18.409 8.057l-0.342-0.331M18.409 8.057l-0.342-0.331M22.142 5.048h0c0.884 0 1.758 0.176 2.573 0.518s1.554 0.842 2.173 1.473c1.263 1.286 1.971 3.016 1.971 4.819s-0.707 3.532-1.97 4.818c-0 0-0 0-0.001 0.001l-10.889 11.027-10.889-11.027c-0-0-0-0-0-0-1.263-1.286-1.97-3.016-1.97-4.818s0.708-3.533 1.971-4.818c0.62-0.63 1.358-1.13 2.173-1.472s1.69-0.517 2.573-0.517c0.884 0 1.758 0.176 2.573 0.517s1.554 0.842 2.173 1.472l0.001 0.001 1.395 1.408 1.397-1.41c0.619-0.631 1.357-1.132 2.172-1.474s1.69-0.518 2.573-0.517z"></path>
</symbol>
<symbol id="icon-shopping-cart" viewBox="0 0 32 32">
<path d="M0.762 3.251c0-0.256 0.102-0.501 0.283-0.682s0.426-0.283 0.682-0.283h2.895c0.215 0 0.424 0.072 0.594 0.205s0.29 0.318 0.342 0.527l0.782 3.129h22.41c0.142 0 0.282 0.031 0.41 0.092s0.242 0.148 0.332 0.257c0.090 0.109 0.156 0.237 0.191 0.374s0.041 0.28 0.014 0.42l-2.895 15.441c-0.041 0.221-0.159 0.421-0.332 0.565s-0.391 0.223-0.616 0.223h-17.372c-0.225-0-0.443-0.079-0.616-0.223s-0.29-0.343-0.332-0.565l-2.893-15.412-0.772-3.102h-2.143c-0.256 0-0.501-0.102-0.682-0.283s-0.283-0.426-0.283-0.682zM6.749 8.076l2.534 13.511h15.77l2.534-13.511h-20.839zM10.413 23.517c-1.024 0-2.006 0.407-2.73 1.131s-1.131 1.706-1.131 2.73c0 1.024 0.407 2.006 1.131 2.73s1.706 1.131 2.73 1.131c1.024 0 2.006-0.407 2.73-1.131s1.131-1.706 1.131-2.73c0-1.024-0.407-2.006-1.131-2.73s-1.706-1.131-2.73-1.131zM23.925 23.517c-1.024 0-2.006 0.407-2.73 1.131s-1.131 1.706-1.131 2.73c0 1.024 0.407 2.006 1.131 2.73s1.706 1.131 2.73 1.131c1.024 0 2.006-0.407 2.73-1.131s1.131-1.706 1.131-2.73c0-1.024-0.407-2.006-1.131-2.73s-1.706-1.131-2.73-1.131zM10.413 25.448c0.512 0 1.003 0.203 1.365 0.565s0.565 0.853 0.565 1.365c0 0.512-0.203 1.003-0.565 1.365s-0.853 0.565-1.365 0.565-1.003-0.203-1.365-0.565c-0.362-0.362-0.565-0.853-0.565-1.365s0.203-1.003 0.565-1.365 0.853-0.565 1.365-0.565zM23.925 25.448c0.512 0 1.003 0.203 1.365 0.565s0.565 0.853 0.565 1.365c0 0.512-0.203 1.003-0.565 1.365s-0.853 0.565-1.365 0.565c-0.512 0-1.003-0.203-1.365-0.565s-0.565-0.853-0.565-1.365c0-0.512 0.203-1.003 0.565-1.365s0.853-0.565 1.365-0.565z"></path>
</symbol>
<symbol id="icon-eye" viewBox="0 0 32 32">
<path d="M19.81 16c0 1.010-0.401 1.979-1.116 2.694s-1.683 1.116-2.694 1.116c-1.010 0-1.979-0.401-2.694-1.116s-1.116-1.683-1.116-2.694c0-1.010 0.401-1.979 1.116-2.694s1.683-1.116 2.694-1.116c1.010 0 1.979 0.401 2.694 1.116s1.116 1.683 1.116 2.694z"></path>
<path d="M3.81 16c0 0 4.571-8.381 12.19-8.381s12.19 8.381 12.19 8.381c0 0-4.571 8.381-12.19 8.381s-12.19-8.381-12.19-8.381zM16 21.333c1.415 0 2.771-0.562 3.771-1.562s1.562-2.357 1.562-3.771c0-1.415-0.562-2.771-1.562-3.771s-2.357-1.562-3.771-1.562c-1.415 0-2.771 0.562-3.771 1.562s-1.562 2.357-1.562 3.771c0 1.415 0.562 2.771 1.562 3.771s2.357 1.562 3.771 1.562z"></path>
</symbol>
<symbol id="icon-educ-star" viewBox="0 0 32 32">
<path d="M30.118 12.8h-10.776l-3.341-10.447-3.341 10.447h-10.776l8.706 6.447-3.294 10.4 8.706-6.447 8.706 6.447-3.341-10.447 8.753-6.4z"></path>
</symbol>
<symbol id="icon-download" viewBox="0 0 32 32">
<path d="M1.882 19.577c0.25 0 0.489 0.099 0.666 0.276s0.276 0.416 0.276 0.666v4.706c0 0.499 0.198 0.978 0.551 1.331s0.832 0.551 1.331 0.551h22.588c0.499 0 0.978-0.198 1.331-0.551s0.551-0.832 0.551-1.331v-4.706c0-0.25 0.099-0.489 0.276-0.666s0.416-0.276 0.666-0.276 0.489 0.099 0.666 0.276c0.176 0.177 0.276 0.416 0.276 0.666v4.706c0 0.998-0.397 1.956-1.103 2.662s-1.664 1.103-2.662 1.103h-22.588c-0.998 0-1.956-0.397-2.662-1.103s-1.103-1.664-1.103-2.662v-4.706c0-0.25 0.099-0.489 0.276-0.666s0.416-0.276 0.665-0.276z"></path>
<path d="M15.335 23.255c0.087 0.088 0.191 0.157 0.306 0.205s0.237 0.072 0.361 0.072c0.124 0 0.246-0.024 0.361-0.072s0.218-0.117 0.306-0.205l5.647-5.647c0.177-0.177 0.276-0.416 0.276-0.666s-0.099-0.49-0.276-0.666c-0.177-0.177-0.416-0.276-0.666-0.276s-0.49 0.099-0.666 0.276l-4.039 4.041v-16.552c0-0.25-0.099-0.489-0.276-0.665s-0.416-0.276-0.666-0.276c-0.25 0-0.489 0.099-0.665 0.276s-0.276 0.416-0.276 0.665v16.552l-4.040-4.041c-0.177-0.177-0.416-0.276-0.666-0.276s-0.49 0.099-0.666 0.276c-0.177 0.177-0.276 0.416-0.276 0.666s0.099 0.49 0.276 0.666l5.647 5.647z"></path>
</symbol>
<symbol id="icon-educ-arrow" viewBox="0 0 32 32">
<path d="M7 27.429l11.429-11.429-11.429-11.429 2.286-4.571 16 16-16 16-2.286-4.571z"></path>
</symbol>
<symbol id="icon-popular-star" viewBox="0 0 32 32">
<path d="M2.667 11.2c-0-1.933 0.776-3.785 2.156-5.139s3.245-2.097 5.178-2.061c2.29-0.012 4.475 0.959 6 2.667 1.525-1.708 3.71-2.679 6-2.667 1.933-0.036 3.798 0.707 5.178 2.061s2.156 3.206 2.156 5.139c0 7.141-8.505 12.533-13.333 16.8-4.817-4.303-13.333-9.653-13.333-16.8z"></path>
</symbol>
<symbol id="icon-check" viewBox="0 0 32 32">
<path d="M32.591 5.409c0.129 0.129 0.232 0.283 0.302 0.452s0.106 0.35 0.106 0.533c0 0.183-0.036 0.364-0.106 0.533s-0.173 0.323-0.302 0.452l-19.476 19.476c-0.129 0.13-0.283 0.232-0.452 0.302s-0.35 0.106-0.533 0.106-0.364-0.036-0.533-0.106c-0.169-0.070-0.323-0.173-0.452-0.302l-9.738-9.738c-0.261-0.261-0.408-0.616-0.408-0.985s0.147-0.724 0.408-0.985c0.261-0.261 0.615-0.408 0.985-0.408s0.724 0.147 0.985 0.408l8.753 8.756 18.491-18.494c0.129-0.13 0.283-0.232 0.452-0.302s0.35-0.106 0.533-0.106c0.183 0 0.364 0.036 0.533 0.106s0.322 0.173 0.452 0.302z"></path>
</symbol>
<symbol id="icon-full-star" viewBox="0 0 32 32">
<path d="M28.018 11.714c-0.080-0.236-0.228-0.444-0.425-0.597s-0.434-0.246-0.683-0.266l-7.275-0.578-3.148-6.969c-0.1-0.224-0.263-0.415-0.47-0.549s-0.447-0.205-0.693-0.205-0.487 0.071-0.693 0.204c-0.206 0.134-0.37 0.324-0.47 0.548l-3.148 6.97-7.275 0.578c-0.244 0.019-0.478 0.109-0.673 0.257s-0.343 0.35-0.426 0.581c-0.083 0.231-0.098 0.48-0.044 0.719s0.177 0.457 0.353 0.628l5.376 5.241-1.901 8.234c-0.058 0.249-0.039 0.51 0.053 0.749s0.254 0.444 0.465 0.589c0.21 0.146 0.46 0.224 0.716 0.226s0.506-0.073 0.719-0.215l6.949-4.633 6.949 4.633c0.217 0.144 0.474 0.219 0.735 0.213s0.514-0.091 0.725-0.245c0.211-0.154 0.37-0.368 0.455-0.615s0.093-0.513 0.022-0.765l-2.334-8.167 5.789-5.209c0.379-0.342 0.518-0.875 0.355-1.359z"></path>
</symbol>
<symbol id="icon-empty-star" viewBox="0 0 32 32">
<path d="M8.347 18.278l-1.901 8.234c-0.059 0.249-0.041 0.511 0.051 0.75s0.254 0.445 0.465 0.591c0.211 0.146 0.46 0.224 0.717 0.226s0.507-0.074 0.719-0.217l6.949-4.632 6.949 4.632c0.217 0.144 0.474 0.219 0.735 0.213s0.514-0.091 0.725-0.245c0.211-0.154 0.37-0.368 0.455-0.615s0.093-0.513 0.022-0.765l-2.334-8.167 5.789-5.209c0.185-0.167 0.318-0.385 0.381-0.626s0.054-0.496-0.026-0.732c-0.080-0.236-0.228-0.444-0.424-0.597s-0.434-0.245-0.683-0.265l-7.275-0.579-3.148-6.969c-0.1-0.224-0.264-0.415-0.47-0.549s-0.447-0.205-0.693-0.205-0.486 0.071-0.693 0.205c-0.206 0.134-0.37 0.324-0.47 0.549l-3.148 6.969-7.275 0.578c-0.244 0.019-0.478 0.109-0.673 0.257s-0.343 0.35-0.426 0.581c-0.083 0.231-0.098 0.48-0.044 0.719s0.177 0.457 0.353 0.628l5.378 5.241zM11.988 12.758c0.228-0.018 0.447-0.097 0.633-0.228s0.335-0.311 0.428-0.519l2.296-5.080 2.296 5.080c0.094 0.208 0.242 0.388 0.428 0.519s0.406 0.21 0.633 0.228l5.069 0.402-4.174 3.757c-0.362 0.327-0.507 0.829-0.374 1.299l1.599 5.596-4.768-3.179c-0.209-0.14-0.456-0.215-0.708-0.215s-0.498 0.075-0.708 0.215l-4.982 3.322 1.34-5.801c0.049-0.213 0.043-0.436-0.019-0.646s-0.176-0.401-0.333-0.554l-3.877-3.78 5.219-0.416z"></path>
</symbol>
<symbol id="icon-phone" viewBox="0 0 32 32">
<path d="M25.13 16.469c-0.148-0.149-0.325-0.267-0.519-0.347s-0.402-0.122-0.612-0.122c-0.21 0-0.418 0.041-0.612 0.122s-0.37 0.199-0.519 0.347l-2.55 2.55c-1.182-0.352-3.389-1.152-4.787-2.55s-2.198-3.605-2.55-4.787l2.55-2.55c0.149-0.148 0.267-0.325 0.347-0.519s0.122-0.402 0.122-0.612c0-0.21-0.041-0.418-0.122-0.612s-0.199-0.37-0.347-0.519l-6.4-6.4c-0.148-0.149-0.325-0.267-0.519-0.347s-0.402-0.122-0.612-0.122c-0.21 0-0.418 0.041-0.612 0.122s-0.37 0.198-0.519 0.347l-4.339 4.339c-0.608 0.608-0.95 1.443-0.938 2.296 0.037 2.278 0.64 10.192 6.877 16.429s14.15 6.838 16.43 6.877h0.045c0.845 0 1.643-0.333 2.248-0.938l4.339-4.339c0.149-0.149 0.267-0.325 0.347-0.519s0.122-0.402 0.122-0.612c0-0.21-0.041-0.418-0.122-0.612s-0.199-0.37-0.347-0.519l-6.4-6.402zM24.927 27.208c-1.997-0.034-8.829-0.57-14.197-5.939-5.386-5.386-5.907-12.242-5.939-14.198l3.208-3.208 4.138 4.138-2.069 2.069c-0.188 0.188-0.326 0.42-0.402 0.675s-0.087 0.524-0.033 0.785c0.038 0.184 0.978 4.547 3.634 7.203s7.019 3.595 7.203 3.634c0.26 0.056 0.53 0.045 0.785-0.030s0.487-0.215 0.674-0.403l2.070-2.069 4.137 4.138-3.21 3.208z"></path>
</symbol>
<symbol id="icon-map" viewBox="0 0 32 32">
<path d="M16 19.2c3.529 0 6.4-2.87 6.4-6.4s-2.87-6.4-6.4-6.4c-3.53 0-6.4 2.87-6.4 6.4s2.87 6.4 6.4 6.4zM16 9.6c1.765 0 3.2 1.435 3.2 3.2s-1.435 3.2-3.2 3.2c-1.765 0-3.2-1.435-3.2-3.2s1.435-3.2 3.2-3.2zM15.072 31.702c0.271 0.193 0.595 0.297 0.928 0.297s0.657-0.104 0.928-0.297c0.486-0.344 11.918-8.598 11.872-18.902 0-7.058-5.742-12.8-12.8-12.8s-12.8 5.742-12.8 12.792c-0.046 10.312 11.385 18.566 11.872 18.91zM16 3.2c5.294 0 9.6 4.306 9.6 9.608 0.034 7.101-7.021 13.477-9.6 15.568-2.578-2.093-9.633-8.47-9.6-15.576 0-5.294 4.306-9.6 9.6-9.6zM16 19.2c3.529 0 6.4-2.87 6.4-6.4s-2.87-6.4-6.4-6.4c-3.53 0-6.4 2.87-6.4 6.4s2.87 6.4 6.4 6.4zM16 9.6c1.765 0 3.2 1.435 3.2 3.2s-1.435 3.2-3.2 3.2c-1.765 0-3.2-1.435-3.2-3.2s1.435-3.2 3.2-3.2zM15.072 31.702c0.271 0.193 0.595 0.297 0.928 0.297s0.657-0.104 0.928-0.297c0.486-0.344 11.918-8.598 11.872-18.902 0-7.058-5.742-12.8-12.8-12.8s-12.8 5.742-12.8 12.792c-0.046 10.312 11.385 18.566 11.872 18.91zM16 3.2c5.294 0 9.6 4.306 9.6 9.608 0.034 7.101-7.021 13.477-9.6 15.568-2.578-2.093-9.633-8.47-9.6-15.576 0-5.294 4.306-9.6 9.6-9.6z"></path>
</symbol>
<symbol id="icon-letter" viewBox="0 0 32 32">
<path d="M0.1 7.036c0.202-0.906 0.697-1.715 1.406-2.295s1.588-0.895 2.494-0.895h24c0.906-0 1.786 0.315 2.494 0.895s1.204 1.389 1.406 2.295l-15.9 9.967-15.9-9.967zM0 9.378v14.572l11.606-7.298-11.606-7.274zM13.522 17.856l-13.14 8.261c0.325 0.702 0.837 1.295 1.478 1.71s1.383 0.635 2.14 0.634h24c0.758 0 1.5-0.22 2.14-0.636s1.152-1.009 1.476-1.711l-13.14-8.26-2.476 1.553-2.478-1.551zM20.394 16.654l11.606 7.296v-14.572l-11.606 7.276z"></path>
</symbol>
<symbol id="icon-facebook" viewBox="0 0 32 32">
<path d="M31.333 15.427c0-8.52-6.865-15.427-15.331-15.427-8.471 0.002-15.335 6.907-15.335 15.429 0 7.698 5.607 14.080 12.936 15.237v-10.78h-3.89v-4.458h3.894v-3.402c0-3.865 2.29-6 5.791-6 1.679 0 3.432 0.301 3.432 0.301v3.795h-1.934c-1.903 0-2.497 1.19-2.497 2.411v2.894h4.251l-0.678 4.458h-3.574v10.78c7.328-1.158 12.936-7.539 12.936-15.238z"></path>
</symbol>
<symbol id="icon-instagram" viewBox="0 0 32 32">
<path d="M16.667 1.333c-3.98 0-4.481 0.018-6.044 0.088-1.564 0.073-2.629 0.319-3.562 0.682-0.979 0.368-1.865 0.946-2.598 1.692-0.746 0.733-1.323 1.619-1.692 2.598-0.363 0.931-0.611 1.998-0.682 3.557-0.070 1.567-0.088 2.066-0.088 6.052 0 3.982 0.018 4.481 0.088 6.044 0.073 1.562 0.319 2.627 0.682 3.56 0.376 0.964 0.876 1.782 1.692 2.598 0.814 0.816 1.632 1.318 2.596 1.692 0.935 0.363 1.998 0.611 3.56 0.682 1.566 0.070 2.064 0.088 6.048 0.088s4.481-0.018 6.046-0.088c1.56-0.073 2.629-0.319 3.562-0.682 0.978-0.368 1.864-0.946 2.596-1.692 0.816-0.816 1.316-1.634 1.692-2.598 0.361-0.933 0.609-1.998 0.682-3.56 0.070-1.564 0.088-2.062 0.088-6.046s-0.018-4.482-0.088-6.048c-0.073-1.56-0.321-2.627-0.682-3.559-0.369-0.979-0.946-1.865-1.692-2.598-0.732-0.747-1.619-1.324-2.598-1.692-0.935-0.363-2.002-0.611-3.562-0.682-1.566-0.070-2.063-0.088-6.048-0.088h0.004zM15.352 3.977h1.316c3.916 0 4.38 0.013 5.925 0.084 1.43 0.064 2.207 0.304 2.724 0.504 0.684 0.266 1.173 0.585 1.687 1.098s0.831 1.001 1.096 1.687c0.202 0.515 0.44 1.293 0.504 2.723 0.071 1.546 0.086 2.009 0.086 5.924s-0.015 4.38-0.086 5.925c-0.064 1.43-0.304 2.206-0.504 2.723-0.235 0.637-0.611 1.213-1.098 1.685-0.513 0.513-1.001 0.831-1.687 1.096-0.513 0.202-1.291 0.44-2.723 0.506-1.546 0.070-2.009 0.086-5.925 0.086s-4.382-0.017-5.927-0.086c-1.43-0.066-2.206-0.304-2.723-0.506-0.637-0.235-1.213-0.609-1.687-1.096-0.488-0.473-0.864-1.049-1.1-1.687-0.2-0.515-0.44-1.293-0.504-2.723-0.070-1.546-0.084-2.009-0.084-5.927 0-3.916 0.015-4.378 0.084-5.924 0.066-1.43 0.304-2.207 0.506-2.724 0.266-0.684 0.585-1.173 1.098-1.687s1.001-0.83 1.687-1.096c0.517-0.202 1.293-0.44 2.723-0.506 1.353-0.062 1.877-0.081 4.611-0.083v0.004zM24.497 6.412c-0.231 0-0.46 0.046-0.673 0.134s-0.408 0.218-0.571 0.382c-0.163 0.163-0.293 0.357-0.381 0.571s-0.134 0.442-0.134 0.674c0 0.231 0.046 0.46 0.134 0.674s0.218 0.408 0.381 0.571c0.163 0.163 0.357 0.293 0.571 0.382s0.442 0.134 0.673 0.134c0.467 0 0.915-0.185 1.245-0.515s0.515-0.778 0.515-1.245-0.185-0.914-0.515-1.245c-0.33-0.33-0.778-0.516-1.245-0.516zM16.669 8.469c-0.999-0.016-1.991 0.168-2.919 0.539s-1.772 0.924-2.484 1.625-1.277 1.537-1.663 2.458c-0.386 0.922-0.585 1.911-0.585 2.91s0.199 1.988 0.585 2.91c0.386 0.922 0.951 1.757 1.663 2.458s1.556 1.253 2.484 1.625c0.928 0.372 1.92 0.555 2.919 0.539 1.977-0.031 3.863-0.838 5.251-2.247s2.165-3.307 2.165-5.285-0.778-3.876-2.165-5.285c-1.387-1.409-3.273-2.216-5.251-2.247zM16.669 11.111c1.297 0 2.54 0.515 3.457 1.432s1.432 2.161 1.432 3.457-0.515 2.54-1.432 3.457c-0.917 0.917-2.161 1.432-3.457 1.432s-2.541-0.515-3.457-1.432c-0.917-0.917-1.432-2.161-1.432-3.457s0.515-2.54 1.432-3.457c0.917-0.917 2.161-1.432 3.457-1.432z"></path>
</symbol>
<symbol id="icon-twitter" viewBox="0 0 32 32">
<path d="M11.214 28c11.070 0 17.125-9.236 17.125-17.231 0-0.258 0-0.521-0.011-0.779 1.179-0.859 2.196-1.923 3.005-3.142-1.101 0.489-2.268 0.811-3.463 0.956 1.259-0.758 2.201-1.95 2.653-3.354-1.183 0.705-2.477 1.201-3.826 1.464-0.907-0.973-2.108-1.617-3.415-1.834s-2.65 0.008-3.818 0.637c-1.169 0.63-2.098 1.63-2.645 2.845s-0.681 2.579-0.38 3.878c-2.393-0.121-4.734-0.747-6.871-1.837s-4.023-2.621-5.535-4.493c-0.768 1.335-1.002 2.914-0.655 4.416s1.248 2.816 2.521 3.673c-0.954-0.033-1.887-0.291-2.724-0.753v0.083c0.002 1.398 0.483 2.753 1.362 3.836s2.103 1.826 3.463 2.105c-0.517 0.143-1.050 0.215-1.586 0.212-0.378 0.001-0.755-0.034-1.126-0.105 0.385 1.204 1.133 2.256 2.142 3.010s2.225 1.171 3.481 1.193c-2.133 1.687-4.768 2.602-7.48 2.597-0.478 0.002-0.955-0.026-1.43-0.083 2.753 1.767 5.95 2.706 9.214 2.705z"></path>
</symbol>
</defs>
</svg>
